<svg width="23" height="16" viewBox="0 0 23 16" fill="none" xmlns="http://www.w3.org/2000/svg">
<path d="M22.5127 2.43497L22.5402 2.61464C22.2742 1.67139 21.5558 0.943553 20.6429 0.678637L20.6236 0.674053C18.907 0.208387 11.9991 0.208387 11.9991 0.208387C11.9991 0.208387 5.10874 0.19922 3.37467 0.674053C2.44433 0.943553 1.72501 1.67139 1.46353 2.59539L1.45894 2.61464C0.817609 5.96139 0.813022 9.9828 1.48738 13.5661L1.45894 13.3846C1.72501 14.3278 2.44341 15.0556 3.35632 15.3206L3.37559 15.3251C5.09039 15.7917 12.0001 15.7917 12.0001 15.7917C12.0001 15.7917 18.8895 15.7917 20.6245 15.3251C21.5558 15.0556 22.2751 14.3278 22.5366 13.4038L22.5412 13.3846C22.8329 11.8281 22.9999 10.0369 22.9999 8.20722C22.9999 8.1403 22.9999 8.07247 22.999 8.00464C22.9999 7.9423 22.9999 7.86805 22.9999 7.7938C22.9999 5.96322 22.8329 4.17205 22.5127 2.43497ZM9.79531 11.3468V4.66155L15.5443 8.00922L9.79531 11.3468Z" fill="white"/>
</svg>
